<?xml version="1.0" encoding="utf-8"?>
<!-- Generator: Adobe Illustrator 16.0.4, SVG Export Plug-In . SVG Version: 6.00 Build 0)  -->
<!DOCTYPE svg PUBLIC "-//W3C//DTD SVG 1.1//EN" "http://www.w3.org/Graphics/SVG/1.1/DTD/svg11.dtd">
<svg version="1.1" id="Layer_1" xmlns:svg="http://www.w3.org/2000/svg"
	 xmlns="http://www.w3.org/2000/svg" xmlns:xlink="http://www.w3.org/1999/xlink" x="0px" y="0px" width="473.5px" height="461px"
	 viewBox="0 -29.5 473.5 461" enable-background="new 0 -29.5 473.5 461" xml:space="preserve">
<path d="M237.334,418.725c18.407-9.643,19.553-81.928,21.117-163.442l180.198-95.41c0,0,12.939-8.52,12.939-21.262l-0.563-22.326
	c0,0-108.552,54.015-150.425,64.029c-30.362,7.26-39.086,8.553-43.488,0.504l-1-146.5c-0.226-16.609,50.844-15.162,52.485-26.084
	c0,0,0.81-8.898,3.358-25.078c0.446-2.832-63.59,12.732-77.122,16.053c-13.532-3.32-77.569-18.885-77.123-16.053
	c2.55,16.18,3.358,25.078,3.358,25.078c1.643,10.922,52.711,9.475,52.485,26.084l-1,146.5c-4.402,8.049-13.126,6.756-43.487-0.504
	C127.194,170.3,18.642,116.285,18.642,116.285l-0.563,22.326c0,12.742,12.939,21.262,12.939,21.262l180.198,95.411
	c1.564,81.515,2.71,153.8,21.118,163.441c0,0,1.024,0.462,2.803,0.462"/>
</svg>
